<svg width="1025" height="1025" viewBox="0 0 1025 1025" fill="none" xmlns="http://www.w3.org/2000/svg">
<path d="M758 0C892.559 0 1003.87 99.5387 1022.32 229H1025V758C1025 905.46 905.46 1025 758 1025H267L265.273 1024.99C118.608 1024.07 0 904.884 0 758V267C0 259.165 0.33878 251.409 1 243.745V229H2.68457C21.0522 100.093 131.49 0.85304 265.273 0.00585938L267 0H758ZM60 758C60 872.323 152.677 965 267 965H652V289H60V758ZM712 289V965H758C872.323 965 965 872.323 965 758V289H712ZM712 229H961.52C943.675 132.826 859.343 60 758 60H712V229ZM267 60C165.657 60 81.3246 132.826 63.4805 229H652V60H267Z" fill="black"/>
<path d="M365 737.5H545" stroke="black" stroke-width="66" stroke-linecap="round" stroke-linejoin="round"/>
<path d="M198.665 406.165C211.552 393.278 232.447 393.278 245.334 406.165L380.334 541.165C393.222 554.052 393.222 574.948 380.334 587.835L245.334 722.835C232.447 735.722 211.552 735.722 198.665 722.835C185.778 709.948 185.777 689.052 198.665 676.165L310.33 564.5L198.665 452.835C185.778 439.948 185.777 419.052 198.665 406.165Z" fill="black"/>
</svg>
